<?xml version="1.0" standalone="no"?>
<!DOCTYPE svg PUBLIC "-//W3C//DTD SVG 20010904//EN"
 "http://www.w3.org/TR/2001/REC-SVG-20010904/DTD/svg10.dtd">
<svg version="1.0" xmlns="http://www.w3.org/2000/svg"
 width="260.000000pt" height="260.000000pt" viewBox="0 0 260.000000 260.000000"
 preserveAspectRatio="xMidYMid meet">
<metadata>
Created by potrace 1.11, written by Peter Selinger 2001-2013
</metadata>
<g transform="translate(0.000000,260.000000) scale(0.100000,-0.100000)"
fill="#000000" stroke="none">
<path d="M1738 2149 c-157 -35 -308 -253 -364 -526 -29 -146 -37 -228 -38
-393 0 -181 10 -285 39 -403 54 -215 153 -340 309 -389 129 -42 345 -13 442
58 35 26 43 73 18 111 -11 18 -14 66 -14 240 1 120 2 233 4 251 2 18 -2 36 -8
39 -18 12 -316 10 -325 -2 -5 -5 -7 -26 -7 -45 2 -29 8 -38 38 -54 59 -33 62
-44 64 -228 1 -233 -15 -274 -106 -265 -36 4 -51 12 -76 41 -35 40 -52 86 -69
181 -4 28 -10 57 -11 65 -13 57 -19 213 -19 445 0 573 37 738 166 750 47 4 91
-16 122 -57 27 -35 71 -140 81 -193 12 -71 14 -73 64 -71 l47 1 3 203 c2 201
2 203 -20 211 -12 4 -41 4 -65 -2 -37 -7 -53 -5 -93 12 -55 24 -128 32 -182
20z"/>
<path d="M488 2129 c-5 -4 -12 -23 -13 -43 -3 -29 2 -43 26 -71 17 -18 33 -46
38 -62 5 -22 8 -1206 2 -1325 0 -15 -15 -43 -32 -63 -30 -34 -43 -82 -32 -112
4 -10 82 -13 389 -13 l384 0 -2 208 -3 207 -50 0 -50 0 -18 -60 c-61 -204 -78
-222 -227 -224 l-100 -2 -1 28 c-1 42 -1 636 0 649 1 12 64 12 93 0 19 -9 41
-52 57 -113 l12 -43 49 0 c48 0 50 1 51 28 1 33 1 402 0 420 -1 8 -18 12 -50
12 l-48 0 -17 -59 c-23 -82 -41 -102 -99 -106 -39 -4 -47 -2 -48 13 -1 19 -1
556 0 586 1 17 9 18 99 14 71 -3 104 -9 124 -21 28 -20 64 -97 74 -162 3 -22
7 -42 9 -43 2 -2 24 -5 49 -7 41 -3 46 -2 47 18 1 30 1 307 0 332 -1 20 -6 20
-352 20 -193 0 -355 -3 -361 -6z"/>
</g>
</svg>
